<mxfile host="app.diagrams.net" agent="Mozilla/5.0 (Windows NT 10.0; Win64; x64) AppleWebKit/537.36 (KHTML, like Gecko) Chrome/128.0.0.0 Safari/537.36 OPR/114.0.0.0" version="24.8.3">
  <diagram name="Страница — 1" id="8sNe1zRQ3HLIoUc3963m">
    <mxGraphModel dx="771" dy="585" grid="1" gridSize="10" guides="1" tooltips="1" connect="1" arrows="1" fold="1" page="1" pageScale="1" pageWidth="827" pageHeight="1169" math="0" shadow="0">
      <root>
        <mxCell id="0" />
        <mxCell id="1" parent="0" />
        <mxCell id="k_XmFIn5UUlnS0vlwZ4f-16" style="edgeStyle=orthogonalEdgeStyle;rounded=0;orthogonalLoop=1;jettySize=auto;html=1;exitX=0.5;exitY=0;exitDx=0;exitDy=0;entryX=0.5;entryY=1;entryDx=0;entryDy=0;endArrow=diamondThin;endFill=1;endSize=12;" parent="1" source="k_XmFIn5UUlnS0vlwZ4f-1" target="k_XmFIn5UUlnS0vlwZ4f-13" edge="1">
          <mxGeometry relative="1" as="geometry" />
        </mxCell>
        <mxCell id="k_XmFIn5UUlnS0vlwZ4f-1" value="MyStack" style="swimlane;fontStyle=1;align=center;verticalAlign=top;childLayout=stackLayout;horizontal=1;startSize=26;horizontalStack=0;resizeParent=1;resizeParentMax=0;resizeLast=0;collapsible=1;marginBottom=0;whiteSpace=wrap;html=1;" parent="1" vertex="1">
          <mxGeometry x="60" y="240" width="160" height="180" as="geometry" />
        </mxCell>
        <mxCell id="k_XmFIn5UUlnS0vlwZ4f-2" value="- list:&amp;nbsp;&lt;span style=&quot;text-align: center;&quot;&gt;ArrayList&amp;lt;Object&amp;gt;&lt;/span&gt;" style="text;strokeColor=none;fillColor=none;align=left;verticalAlign=top;spacingLeft=4;spacingRight=4;overflow=hidden;rotatable=0;points=[[0,0.5],[1,0.5]];portConstraint=eastwest;whiteSpace=wrap;html=1;" parent="k_XmFIn5UUlnS0vlwZ4f-1" vertex="1">
          <mxGeometry y="26" width="160" height="34" as="geometry" />
        </mxCell>
        <mxCell id="k_XmFIn5UUlnS0vlwZ4f-3" value="" style="line;strokeWidth=1;fillColor=none;align=left;verticalAlign=middle;spacingTop=-1;spacingLeft=3;spacingRight=3;rotatable=0;labelPosition=right;points=[];portConstraint=eastwest;strokeColor=inherit;" parent="k_XmFIn5UUlnS0vlwZ4f-1" vertex="1">
          <mxGeometry y="60" width="160" height="10" as="geometry" />
        </mxCell>
        <mxCell id="k_XmFIn5UUlnS0vlwZ4f-4" value="+ getSize(): int&lt;div&gt;+ peek() : Object&lt;/div&gt;&lt;div&gt;+ push(Object): void&lt;/div&gt;&lt;div&gt;+ pop():&amp;nbsp;&lt;span style=&quot;background-color: initial;&quot;&gt;Object&lt;/span&gt;&lt;/div&gt;&lt;div&gt;+ isEmpty(): boolean&lt;/div&gt;&lt;div&gt;+ toString(): String&lt;/div&gt;&lt;div&gt;+ clone(): Object&lt;/div&gt;" style="text;strokeColor=none;fillColor=none;align=left;verticalAlign=top;spacingLeft=4;spacingRight=4;overflow=hidden;rotatable=0;points=[[0,0.5],[1,0.5]];portConstraint=eastwest;whiteSpace=wrap;html=1;" parent="k_XmFIn5UUlnS0vlwZ4f-1" vertex="1">
          <mxGeometry y="70" width="160" height="110" as="geometry" />
        </mxCell>
        <mxCell id="k_XmFIn5UUlnS0vlwZ4f-15" style="edgeStyle=orthogonalEdgeStyle;rounded=0;orthogonalLoop=1;jettySize=auto;html=1;entryX=0.5;entryY=1;entryDx=0;entryDy=0;endArrow=classic;endFill=0;endSize=12;" parent="1" source="k_XmFIn5UUlnS0vlwZ4f-5" target="k_XmFIn5UUlnS0vlwZ4f-14" edge="1">
          <mxGeometry relative="1" as="geometry" />
        </mxCell>
        <mxCell id="k_XmFIn5UUlnS0vlwZ4f-5" value="MyStack&amp;lt;E&amp;gt;" style="swimlane;fontStyle=1;align=center;verticalAlign=top;childLayout=stackLayout;horizontal=1;startSize=26;horizontalStack=0;resizeParent=1;resizeParentMax=0;resizeLast=0;collapsible=1;marginBottom=0;whiteSpace=wrap;html=1;" parent="1" vertex="1">
          <mxGeometry x="270" y="240" width="160" height="120" as="geometry" />
        </mxCell>
        <mxCell id="k_XmFIn5UUlnS0vlwZ4f-7" value="" style="line;strokeWidth=1;fillColor=none;align=left;verticalAlign=middle;spacingTop=-1;spacingLeft=3;spacingRight=3;rotatable=0;labelPosition=right;points=[];portConstraint=eastwest;strokeColor=inherit;" parent="k_XmFIn5UUlnS0vlwZ4f-5" vertex="1">
          <mxGeometry y="26" width="160" height="10" as="geometry" />
        </mxCell>
        <mxCell id="k_XmFIn5UUlnS0vlwZ4f-8" value="+ getSize(): int&lt;div&gt;+ peek() : E&lt;/div&gt;&lt;div&gt;+ push(E): void&lt;/div&gt;&lt;div&gt;+ pop(): E&lt;/div&gt;&lt;div&gt;+ toString(): String&lt;/div&gt;" style="text;strokeColor=none;fillColor=none;align=left;verticalAlign=top;spacingLeft=4;spacingRight=4;overflow=hidden;rotatable=0;points=[[0,0.5],[1,0.5]];portConstraint=eastwest;whiteSpace=wrap;html=1;" parent="k_XmFIn5UUlnS0vlwZ4f-5" vertex="1">
          <mxGeometry y="36" width="160" height="84" as="geometry" />
        </mxCell>
        <mxCell id="k_XmFIn5UUlnS0vlwZ4f-13" value="ArrayList&amp;lt;Object&amp;gt;" style="html=1;whiteSpace=wrap;" parent="1" vertex="1">
          <mxGeometry x="85" y="100" width="110" height="50" as="geometry" />
        </mxCell>
        <mxCell id="k_XmFIn5UUlnS0vlwZ4f-14" value="ArrayList&amp;lt;E&amp;gt;" style="html=1;whiteSpace=wrap;" parent="1" vertex="1">
          <mxGeometry x="295" y="100" width="110" height="50" as="geometry" />
        </mxCell>
        <mxCell id="dLtCMQ7QvQIkyJCfJKS3-1" value="Cloneable" style="html=1;whiteSpace=wrap;" vertex="1" parent="1">
          <mxGeometry x="85" y="470" width="110" height="50" as="geometry" />
        </mxCell>
        <mxCell id="dLtCMQ7QvQIkyJCfJKS3-2" style="edgeStyle=orthogonalEdgeStyle;rounded=0;orthogonalLoop=1;jettySize=auto;html=1;entryX=0.497;entryY=0.991;entryDx=0;entryDy=0;entryPerimeter=0;endArrow=none;endFill=0;startArrow=classic;startFill=0;endSize=6;startSize=12;" edge="1" parent="1" source="dLtCMQ7QvQIkyJCfJKS3-1" target="k_XmFIn5UUlnS0vlwZ4f-4">
          <mxGeometry relative="1" as="geometry" />
        </mxCell>
      </root>
    </mxGraphModel>
  </diagram>
</mxfile>
